<svg width="24" height="24" viewBox="0 0 24 24" fill="none" xmlns="http://www.w3.org/2000/svg">
<path d="M7.5 9H9V10.5H7.5V9ZM13.5 9H15V10.5H13.5V9ZM18.9961 16.5C19.2695 16.5 19.5273 16.5508 19.7695 16.6523C20.0117 16.7539 20.2227 16.8984 20.4023 17.0859C20.582 17.2734 20.7266 17.4883 20.8359 17.7305C20.9453 17.9727 21 18.2305 21 18.5039V24H19.5V18.5039C19.5 18.3633 19.4531 18.2461 19.3594 18.1523C19.2656 18.0586 19.1445 18.0078 18.9961 18H3.50391C3.36328 18 3.24609 18.0469 3.15234 18.1406C3.05859 18.2344 3.00781 18.3555 3 18.5039V24H1.5V18.5039C1.5 18.2305 1.55078 17.9727 1.65234 17.7305C1.75391 17.4883 1.89844 17.2773 2.08594 17.0977C2.27344 16.918 2.48438 16.7734 2.71875 16.6641C2.95312 16.5547 3.21484 16.5 3.50391 16.5H7.5V15H6.50391C6.23047 15 5.97266 14.9492 5.73047 14.8477C5.48828 14.7461 5.27344 14.6016 5.08594 14.4141C4.89844 14.2266 4.75781 14.0156 4.66406 13.7812C4.57031 13.5469 4.51562 13.2852 4.5 12.9961V12H3V9H4.5V8.00391C4.5 7.73047 4.55078 7.47266 4.65234 7.23047C4.75391 6.98828 4.89844 6.77734 5.08594 6.59766C5.27344 6.41797 5.48438 6.27344 5.71875 6.16406C5.95312 6.05469 6.21484 6 6.50391 6H10.5V3.55078C10.2734 3.41797 10.0938 3.23438 9.96094 3C9.82812 2.76562 9.75781 2.51562 9.75 2.25C9.75 2.03906 9.78906 1.84375 9.86719 1.66406C9.94531 1.48438 10.0508 1.32812 10.1836 1.19531C10.3164 1.0625 10.4766 0.953125 10.6641 0.867188C10.8516 0.78125 11.0469 0.742188 11.25 0.75C11.4609 0.75 11.6562 0.789062 11.8359 0.867188C12.0156 0.945312 12.1719 1.05078 12.3047 1.18359C12.4375 1.31641 12.5469 1.47656 12.6328 1.66406C12.7188 1.85156 12.7578 2.04687 12.75 2.25C12.75 2.51562 12.6836 2.76562 12.5508 3C12.418 3.23438 12.2344 3.41797 12 3.55078V6H15.9961C16.2695 6 16.5273 6.05078 16.7695 6.15234C17.0117 6.25391 17.2227 6.39844 17.4023 6.58594C17.582 6.77344 17.7266 6.98828 17.8359 7.23047C17.9453 7.47266 18 7.73047 18 8.00391V9H19.5V12H18V12.9961C18 13.2695 17.9492 13.5273 17.8477 13.7695C17.7461 14.0117 17.6016 14.2266 17.4141 14.4141C17.2266 14.6016 17.0117 14.7422 16.7695 14.8359C16.5273 14.9297 16.2695 14.9844 15.9961 15H15V16.5H18.9961ZM6 12.9961C6 13.1367 6.04688 13.2539 6.14062 13.3477C6.23438 13.4414 6.35547 13.4922 6.50391 13.5H15.9961C16.1367 13.5 16.2539 13.4531 16.3477 13.3594C16.4414 13.2656 16.4922 13.1445 16.5 12.9961V8.00391C16.5 7.86328 16.4531 7.74609 16.3594 7.65234C16.2656 7.55859 16.1445 7.50781 15.9961 7.5H6.50391C6.36328 7.5 6.24609 7.54688 6.15234 7.64062C6.05859 7.73438 6.00781 7.85547 6 8.00391V12.9961ZM9 16.5H13.5V15H9V16.5Z" fill="white"/>
</svg>
