<svg width="24" height="24" viewBox="0 0 24 24" fill="none" xmlns="http://www.w3.org/2000/svg">
<path d="M21.7496 22.2857H2.25062C1.00568 22.2857 0.000732422 21.1371 0.000732422 19.7143V4.28571C0.000732422 2.86285 1.00568 1.71428 2.25062 1.71428H21.7496C22.9945 1.71428 23.9995 2.86285 23.9995 4.28571V19.7143C23.9995 21.1371 22.9945 22.2857 21.7496 22.2857ZM2.25062 3.42856C1.83064 3.42856 1.50065 3.80571 1.50065 4.28571V19.7143C1.50065 20.1943 1.83064 20.5714 2.25062 20.5714H21.7496C22.1696 20.5714 22.4996 20.1943 22.4996 19.7143V4.28571C22.4996 3.80571 22.1696 3.42856 21.7496 3.42856H2.25062Z" fill="white"/>
<path d="M12.0001 15.36C10.9501 15.36 9.99016 14.88 9.2702 14.0057L1.39561 4.44001C1.11062 4.09715 1.12562 3.54858 1.42561 3.22286C1.72559 2.89715 2.20556 2.91429 2.49055 3.25715L10.3651 12.8229C11.2201 13.8686 12.78 13.8686 13.635 12.8229L21.5096 3.27429C21.7945 2.93144 22.2745 2.91429 22.5745 3.24001C22.8745 3.56572 22.8895 4.11429 22.6045 4.45715L14.7299 14.0229C14.01 14.8972 13.05 15.3772 12.0001 15.3772V15.36Z" fill="white"/>
</svg>
