<svg width="24" height="24" viewBox="0 0 24 24" fill="none" xmlns="http://www.w3.org/2000/svg">
<path d="M4 12C4 8.229 4 6.343 5.172 5.172C6.344 4.001 8.229 4 12 4C15.771 4 17.657 4 18.828 5.172C19.999 6.344 20 8.229 20 12C20 15.771 20 17.657 18.828 18.828C17.656 19.999 15.771 20 12 20C8.229 20 6.343 20 5.172 18.828C4.001 17.656 4 15.771 4 12Z" stroke="white" stroke-width="1.2" stroke-linejoin="round"/>
<path d="M7.732 16.268C8.464 17 9.643 17 12 17C12.79 17 13.447 17 14 16.972C14 16.972 15.4395 17.0965 16.268 16.268C17.0965 15.4395 16.972 14 16.972 14C17 13.447 17 12.79 17 12C17 9.643 17 8.464 16.268 7.732C15.536 7 14.357 7 12 7C9.643 7 8.464 7 7.732 7.732C7 8.464 7 9.643 7 12C7 14.357 7 15.536 7.732 16.268Z" stroke="white" stroke-linejoin="round"/>
<path d="M8 2V4M16 2V4M12 2V4M8 20V22M12 20V22M16 20V22M22 16H20M4 8H2M4 16H2M4 12H2M22 8H20M22 12H20" stroke="white" stroke-width="1.2" stroke-linecap="round" stroke-linejoin="round"/>
</svg>
