<svg width="156" height="51" viewBox="0 0 156 51" fill="none" xmlns="http://www.w3.org/2000/svg">
<path d="M24.9423 11.8628C24.8659 11.887 24.7369 12.3218 24.7369 12.3218L24.4801 12.8829L24.1206 13.6989L23.9152 14.209L24.0179 14.413L24.326 15.1271L25.045 16.6572L25.5586 17.7793L28.1265 23.4918C28.1265 23.4918 28.4395 24.1135 28.64 24.5119C28.6802 24.5915 28.7428 24.7159 28.7428 24.7159H28.8455L29.0509 24.6139L31.0025 23.5938L31.2079 23.4918L31.4134 23.3898L31.6188 23.2878V23.0837L31.4134 22.5737L31.1052 21.9616L30.1808 19.9215L28.8455 16.9632L28.1265 15.4331L27.7156 14.515L27.4075 13.8009L27.3048 13.5969L27.202 13.3929L26.8939 12.9849C26.8939 12.9849 26.6194 12.7278 26.4317 12.5768C26.2197 12.4063 25.947 12.2086 25.8667 12.1688C25.7865 12.129 25.7415 12.1066 25.6613 12.0668C25.5811 12.0269 25.5383 11.9999 25.4559 11.9648C25.3393 11.9152 25.2736 11.8784 25.1477 11.8628C25.0681 11.8529 25.0188 11.8386 24.9423 11.8628Z" fill="#F0A500"/>
<path d="M41.0685 25.0219H40.8631L40.5549 25.1601L37.6789 26.45L36.6518 26.9601L36.5491 27.0621V27.1641L36.7031 27.5211L43.1742 41.4453L43.5337 42.2614C43.5337 42.2614 43.6364 42.6695 43.6878 42.8225C43.7905 43.1285 43.7537 44.0184 43.1742 44.3016C42.606 44.5793 41.9478 44.4188 41.4794 43.9956C41.31 43.8426 40.9658 43.2305 40.9658 43.2305L38.1925 37.467L34.2893 29.0003L34.1866 28.7962L34.0839 28.5922L33.9812 28.4902H33.8785L33.673 28.5922L32.1323 29.5103L31.3106 30.0204L31.2079 30.1224V30.2244L31.3106 30.4284L31.516 30.8364L32.4405 32.8766L33.3649 34.9168C33.3649 34.9168 34.0544 36.4085 34.4948 37.365C35.5024 39.5539 36.0341 40.7962 37.0626 42.9755C37.4206 43.7338 37.7015 44.4606 37.9871 44.9136C38.3577 45.5016 38.8055 46.0817 39.1169 46.3928C39.7798 47.0548 40.4038 47.4958 41.0685 47.7189C41.8496 47.981 42.8469 48.0842 43.9445 47.9229C45.1432 47.7467 46.3281 47.1153 46.8206 46.6988C47.4436 46.1718 48.2025 45.3026 48.5154 44.1486C48.7817 43.166 48.4021 41.7514 48.3613 41.5474C48.3205 41.3433 48.1864 41.0236 48.0531 40.6293C47.8753 40.1033 47.7568 39.8144 47.5396 39.3032C47.3163 38.7777 47.1607 38.4964 46.9233 37.9771C46.4703 36.9863 43.1228 29.6123 43.1228 29.6123L41.1142 25.1239C41.1142 25.1239 41.074 25.0252 41.0685 25.0219Z" fill="#F0A500"/>
<path d="M29.5645 6.35429L28.9482 6.4563L28.1265 6.76232L27.6129 7.06835L26.7912 7.88442L26.5858 8.19045L26.3803 8.49647L26.2776 8.70049L26.1749 8.90451L26.0722 9.10853L25.9695 9.41455V9.61857C25.9695 9.61857 26.0215 9.54176 26.0722 9.51656C26.1749 9.46556 26.4156 9.46556 26.6371 9.46556C26.8587 9.46556 26.9868 9.46475 27.2021 9.51656C27.3253 9.54623 27.3899 9.57873 27.5102 9.61857C27.6305 9.65841 27.7018 9.67096 27.8184 9.72058C27.9008 9.75567 27.9456 9.77901 28.0238 9.82259C28.1499 9.89286 28.2152 9.94182 28.3319 10.0266C28.744 10.3259 29.0509 10.6387 29.2564 10.9447C29.4618 11.2507 29.4955 11.3177 29.6159 11.5567C29.656 11.6364 29.9754 12.3728 29.9754 12.3728L31.3107 15.3311L33.8785 21.0436L34.1867 21.7576L34.2894 22.0637H34.3921L35.1111 21.7576L36.96 21.0436L38.2953 20.5335L38.8089 20.3295L38.9116 20.2275V20.1255L38.8089 19.9215L38.7061 19.7175L37.7817 17.7793L36.7546 15.4331L35.3165 12.1688L34.4948 10.3326L34.084 9.41455L33.7758 8.90451L33.5704 8.59848L33.365 8.29246L32.8514 7.6804L32.3378 7.17036L31.6188 6.76232L30.7971 6.4563L30.0781 6.35429H29.5645Z" fill="#F0A500"/>
<path d="M25.045 3.09C24.843 3.12215 24.7309 3.14694 24.5314 3.19201C24.3702 3.22844 24.2791 3.24729 24.1206 3.29401C23.999 3.32985 23.7423 3.41081 23.5043 3.49803C23.3016 3.5723 23.1862 3.61082 22.9907 3.70205C22.9095 3.73993 22.7853 3.80406 22.7853 3.80406C22.7853 3.80406 22.3895 4.02672 22.2717 4.11008C22.0625 4.25814 21.9254 4.30511 21.7068 4.46712C21.4431 4.66247 21.2853 4.81144 21.0391 5.02816C20.8269 5.21504 20.539 5.49957 20.2688 5.84424C20.1183 6.03607 20.0448 6.15179 19.9093 6.35428C19.6503 6.7412 19.5192 6.96772 19.293 7.37437C19.0327 7.84219 18.6952 8.36731 18.3172 9.00651C16.4349 12.1895 15.4653 14.0235 13.695 17.2692C11.5371 21.2254 10.0286 23.4499 7.99432 27.4701C6.91088 29.6112 6.45094 30.5741 5.4778 32.5706C4.23873 35.1127 3.35084 36.4574 2.345 39.0991C2.04437 39.8887 1.76063 40.3058 1.62599 41.1393C1.50526 41.8867 1.47193 42.2614 1.52328 42.6184C1.57463 42.9755 1.72871 43.5875 1.72871 43.5875C1.72871 43.5875 1.89463 44.0939 2.03685 44.4036C2.29094 44.9568 2.47073 45.2592 2.85857 45.7297C3.14604 46.0785 3.32597 46.2642 3.68029 46.5458C4.06704 46.8532 4.30513 47.0113 4.7588 47.2088C5.27114 47.4319 5.59116 47.4908 6.14545 47.5659C6.78136 47.652 7.15484 47.6646 7.78889 47.5659C8.24072 47.4955 8.49306 47.4259 8.91875 47.2598C9.57187 47.0051 9.918 46.785 10.4595 46.3418C10.8097 46.0551 11.136 45.6987 11.4866 45.2197C11.9403 44.5998 12.0795 44.1774 12.4111 43.4855C12.7665 42.744 12.9062 42.3018 13.2328 41.5473C13.5095 40.9082 13.6817 40.5571 13.9518 39.9152C14.2017 39.3214 14.3626 38.5381 14.5681 38.3851C14.7735 38.2321 15.2566 38.0739 15.6979 37.875C16.5399 37.4956 17.0255 37.3115 17.855 36.9059C19.2165 36.2403 19.9474 35.8009 21.2446 35.0188C22.5569 34.2275 23.2518 33.7191 24.5314 32.8766C26.5065 31.5761 27.8183 30.6526 29.9753 29.3063C31.9556 28.0702 33.0576 27.3581 35.1111 26.246C35.9459 25.7939 36.4125 25.536 37.2681 25.1239C38.0597 24.7427 38.523 24.5706 39.3224 24.2058C39.9257 23.9305 40.2582 23.7637 40.8631 23.4918C41.223 23.33 41.4232 23.2355 41.7875 23.0837C42.3028 22.8692 42.6014 22.7729 43.1228 22.5737C43.6443 22.3745 43.9325 22.2518 44.4581 22.0637C45.0548 21.8501 45.3915 21.7349 45.9989 21.5536C46.2785 21.4701 46.4372 21.4296 46.7179 21.3496C47.6818 21.0748 48.217 20.9028 49.183 20.6355C49.6236 20.5136 49.8686 20.4374 50.3129 20.3295C50.6721 20.2422 51.2373 20.1255 51.2373 20.1255C51.2373 20.1255 51.2344 20.1261 51.2326 20.1265C50.7083 20.2422 52.0469 19.9283 52.5726 19.8195C52.5726 19.8195 53.4427 19.5984 54.0106 19.5134C54.3698 19.4597 54.7994 19.4268 54.9351 19.4114C55.0378 19.3997 55.5 19.3604 55.5 19.3604C55.5 19.3604 55.344 19.3269 55.2432 19.3094C54.9256 19.2543 54.4307 19.2226 53.9079 19.2074C53.5872 19.1981 53.5024 19.2074 53.0862 19.2074C52.2035 19.2074 51.708 19.2523 50.8265 19.3094C50.3046 19.3432 50.0119 19.3626 49.4912 19.4114C48.8076 19.4756 48.4253 19.5232 47.745 19.6154C46.9805 19.7191 46.5526 19.7848 45.7934 19.9215C45.1897 20.0302 44.851 20.0923 44.2527 20.2275C43.7689 20.3368 43.5006 20.4107 43.0201 20.5335C42.4171 20.6877 42.0785 20.7728 41.4794 20.9416C40.1004 21.3301 39.3366 21.5836 37.9871 22.0636C37.3418 22.2932 36.9811 22.4253 36.3437 22.6757C34.9575 23.2202 34.2024 23.5803 32.8513 24.2058C31.0628 25.0338 30.0476 25.482 28.3319 26.45C26.8901 27.2635 25.7454 28.0362 24.1206 29.1023C23.7586 29.3398 23.558 29.4766 23.1961 29.7143C22.3981 30.2386 21.9441 30.5225 21.1418 31.0404C20.3396 31.5583 19.9023 31.8683 19.0875 32.3665C18.4139 32.7785 17.9577 33.0806 17.3414 33.3866C16.7251 33.6927 16.3489 33.9028 15.6979 34.2027C15.3396 34.3678 15.1417 34.4685 14.7735 34.6107C14.1111 34.8667 13.4382 35.1208 13.0274 35.2228C12.6165 35.3248 11.6446 35.5529 10.7676 35.4268C10.5652 35.3977 10.4509 35.3798 10.254 35.3248C10.1319 35.2907 10.0662 35.2626 9.9459 35.2228C9.82557 35.183 9.75553 35.1676 9.63776 35.1208C9.4712 35.0546 9.38145 35.0072 9.2269 34.9168C9.1023 34.8438 9.03349 34.8002 8.91875 34.7127C8.69374 34.5413 8.57787 34.4262 8.40518 34.2027C8.31713 34.0888 8.27051 34.0219 8.19975 33.8967C8.15587 33.819 8.13237 33.7745 8.09703 33.6927C8.04707 33.5769 7.99432 33.3866 7.99432 33.3866C7.99432 33.3866 7.91825 33.1407 7.8916 32.9786C7.8399 32.6641 7.85299 32.4789 7.8916 32.1625C7.91622 31.9609 7.94894 31.8505 7.99432 31.6525C8.03101 31.4923 8.09703 31.2444 8.09703 31.2444C8.09703 31.2444 8.14839 31.0404 8.19975 30.9384C8.25111 30.8364 8.30246 30.8364 8.30246 30.8364C8.30246 30.8364 8.35382 30.8874 8.35382 31.0404C8.35382 31.1934 8.34608 31.564 8.40518 31.9585C8.43528 32.1594 8.44506 32.2752 8.50789 32.4686C8.59056 32.7229 8.66287 32.8609 8.81604 33.0806C9.00978 33.3585 9.15248 33.5002 9.43233 33.6927C9.65357 33.8448 9.79471 33.9102 10.0486 33.9987C10.3753 34.1125 10.576 34.2341 10.9217 34.2537C11.2627 34.2731 11.5224 34.2215 11.8975 34.1517C12.359 34.0658 12.6209 33.926 13.0274 33.6927C13.4098 33.4731 13.5631 33.2927 13.8491 32.9786C14.0993 32.7037 14.2227 32.5182 14.414 32.2135C15.1309 31.072 15.3619 30.3354 15.9034 29.1023C16.2845 28.2343 16.4561 27.73 16.8278 26.8581C17.255 25.8561 17.524 25.307 17.9577 24.3078C18.0786 24.0292 18.1431 23.8716 18.2658 23.5938C18.4605 23.153 18.7794 22.4717 18.7794 22.4717L19.0875 21.7576L19.4984 20.8395L19.7038 20.3295C19.7038 20.3295 19.89 19.8936 20.012 19.6154C20.1697 19.2557 20.2624 19.0559 20.4228 18.6974C20.5833 18.3388 20.6769 18.1394 20.8337 17.7793C21.0407 17.3039 21.1388 17.0299 21.3473 16.5552C21.541 16.114 21.6645 15.8732 21.8608 15.4331C22.1083 14.8783 22.2319 14.5607 22.4771 14.0049C22.6357 13.6456 22.7262 13.4448 22.888 13.0869C23.0865 12.6477 23.2034 12.404 23.4016 11.9648C23.8129 11.053 24.0145 10.5291 24.4287 9.61856C24.6652 9.09877 24.7737 8.79519 25.045 8.29245C25.266 7.88296 25.3778 7.6419 25.6613 7.27236C26.0051 6.82423 26.2415 6.59916 26.6884 6.25227C26.8814 6.10257 27.0759 5.96551 27.202 5.89524C27.2802 5.85166 27.4299 5.78206 27.5102 5.74223C27.5904 5.70239 27.6354 5.68006 27.7156 5.64022C27.7958 5.60038 27.838 5.57182 27.921 5.53821C28.0742 5.47624 28.1714 5.42503 28.3319 5.3852C28.4923 5.34536 28.6317 5.31412 28.7941 5.28319C29.3456 5.17814 29.6672 5.18118 29.8726 5.18118C30.078 5.18118 30.3509 5.25452 30.5916 5.33419C30.712 5.37403 31.04 5.48858 31.1565 5.53821C31.239 5.5733 31.6926 5.8554 31.7728 5.89524C31.6926 5.8554 31.8531 5.93508 31.7728 5.89524C31.6904 5.86015 31.8531 5.93508 31.7728 5.89524C31.7728 5.89524 32.23 6.1565 32.3378 6.25227C32.38 6.28984 32.4405 6.35428 32.4405 6.35428C32.4405 6.35428 32.3823 6.2276 32.3378 6.15026C32.2383 5.97732 32.0296 5.74223 32.0296 5.74223C32.0296 5.74223 31.4434 5.07662 31.0025 4.72214C30.8466 4.59681 30.5916 4.41611 30.5916 4.41611C30.5916 4.41611 29.9842 4.00917 29.5645 3.80406C29.1768 3.61463 28.6577 3.43586 28.5373 3.39602C28.417 3.35619 28.3508 3.32985 28.2292 3.29401C28.0706 3.24729 27.98 3.22668 27.8183 3.19201C27.5798 3.14084 27.444 3.12096 27.202 3.09C26.3666 2.9831 25.8768 2.95758 25.045 3.09Z" fill="#F0A500"/>
<path d="M60.4432 42.2301C59.4148 42.2301 58.4943 41.9659 57.6818 41.4375C56.8693 40.9091 56.2273 40.142 55.7557 39.1364C55.2841 38.1307 55.0483 36.9091 55.0483 35.4716C55.0483 34.017 55.2869 32.7898 55.7642 31.7898C56.2472 30.7841 56.8977 30.0256 57.7159 29.5142C58.5341 28.9972 59.446 28.7386 60.4517 28.7386C61.2188 28.7386 61.8494 28.8693 62.3438 29.1307C62.8381 29.3864 63.2301 29.696 63.5199 30.0597C63.8097 30.4176 64.0341 30.7557 64.1932 31.0739H64.321V24.5455H67.4148V42H64.3807V39.9375H64.1932C64.0341 40.2557 63.804 40.5937 63.5028 40.9517C63.2017 41.304 62.804 41.6051 62.3097 41.8551C61.8153 42.1051 61.1932 42.2301 60.4432 42.2301ZM61.304 39.6989C61.9574 39.6989 62.5142 39.5227 62.9744 39.1705C63.4347 38.8125 63.7841 38.3153 64.0227 37.679C64.2614 37.0426 64.3807 36.3011 64.3807 35.4545C64.3807 34.608 64.2614 33.8722 64.0227 33.2472C63.7898 32.6222 63.4432 32.1364 62.983 31.7898C62.5284 31.4432 61.9688 31.2699 61.304 31.2699C60.6165 31.2699 60.0426 31.4489 59.5824 31.8068C59.1222 32.1648 58.7756 32.6591 58.5426 33.2898C58.3097 33.9205 58.1932 34.642 58.1932 35.4545C58.1932 36.2727 58.3097 37.0028 58.5426 37.6449C58.7813 38.2812 59.1307 38.7841 59.5909 39.1534C60.0568 39.517 60.6278 39.6989 61.304 39.6989ZM82.3956 28.9091L77.7337 42H74.3246L69.6626 28.9091H72.9524L75.9609 38.6335H76.0973L79.1143 28.9091H82.3956ZM87.9226 42.2642C87.093 42.2642 86.3459 42.1165 85.6811 41.821C85.022 41.5199 84.4993 41.0767 84.1129 40.4915C83.7322 39.9062 83.5419 39.1847 83.5419 38.3267C83.5419 37.5881 83.6783 36.9773 83.951 36.4943C84.2237 36.0114 84.5959 35.625 85.0675 35.3352C85.5391 35.0455 86.0703 34.8267 86.6612 34.679C87.2578 34.5256 87.8743 34.4148 88.5107 34.3466C89.2777 34.267 89.8999 34.196 90.3771 34.1335C90.8544 34.0653 91.201 33.9631 91.4169 33.8267C91.6385 33.6847 91.7493 33.4659 91.7493 33.1705V33.1193C91.7493 32.4773 91.5589 31.9801 91.1783 31.6278C90.7976 31.2756 90.2493 31.0994 89.5334 31.0994C88.7777 31.0994 88.1783 31.2642 87.7351 31.5938C87.2976 31.9233 87.0021 32.3125 86.8487 32.7614L83.968 32.3523C84.1953 31.5568 84.5703 30.892 85.093 30.358C85.6158 29.8182 86.255 29.4148 87.0107 29.1477C87.7663 28.875 88.6016 28.7386 89.5163 28.7386C90.147 28.7386 90.7749 28.8125 91.3999 28.9602C92.0249 29.108 92.5959 29.3523 93.1129 29.6932C93.63 30.0284 94.0447 30.4858 94.3572 31.0653C94.6754 31.6449 94.8345 32.3693 94.8345 33.2386V42H91.8686V40.2017H91.7663C91.5788 40.5653 91.3146 40.9062 90.9737 41.2244C90.6385 41.5369 90.2152 41.7898 89.7038 41.983C89.1982 42.1705 88.6044 42.2642 87.9226 42.2642ZM88.7237 39.9972C89.343 39.9972 89.88 39.875 90.3345 39.6307C90.7891 39.3807 91.1385 39.0511 91.3828 38.642C91.6328 38.233 91.7578 37.7869 91.7578 37.304V35.7614C91.6612 35.8409 91.4964 35.9148 91.2635 35.983C91.0362 36.0511 90.7805 36.1108 90.4964 36.1619C90.2124 36.2131 89.9311 36.2585 89.6527 36.2983C89.3743 36.3381 89.1328 36.3722 88.9283 36.4006C88.468 36.4631 88.0561 36.5653 87.6925 36.7074C87.3288 36.8494 87.0419 37.0483 86.8317 37.304C86.6214 37.554 86.5163 37.8778 86.5163 38.2756C86.5163 38.8438 86.7237 39.2727 87.1385 39.5625C87.5533 39.8523 88.0817 39.9972 88.7237 39.9972ZM101.022 34.3295V42H97.9368V28.9091H100.886V31.1335H101.039C101.34 30.4006 101.82 29.8182 102.479 29.3864C103.144 28.9545 103.965 28.7386 104.942 28.7386C105.846 28.7386 106.633 28.9318 107.303 29.3182C107.979 29.7045 108.502 30.2642 108.871 30.9972C109.246 31.7301 109.431 32.6193 109.425 33.6648V42H106.34V34.142C106.34 33.267 106.113 32.5824 105.658 32.0881C105.21 31.5937 104.587 31.3466 103.792 31.3466C103.252 31.3466 102.772 31.4659 102.352 31.7045C101.937 31.9375 101.61 32.2756 101.371 32.7188C101.138 33.1619 101.022 33.6989 101.022 34.3295ZM118.272 42.2557C116.965 42.2557 115.843 41.9688 114.906 41.3949C113.974 40.821 113.255 40.0284 112.749 39.017C112.249 38 111.999 36.8295 111.999 35.5057C111.999 34.1761 112.255 33.0028 112.766 31.9858C113.278 30.9631 113.999 30.1676 114.931 29.5994C115.869 29.0256 116.977 28.7386 118.255 28.7386C119.317 28.7386 120.258 28.9347 121.076 29.3267C121.9 29.7131 122.556 30.2614 123.045 30.9716C123.533 31.6761 123.812 32.5 123.88 33.4432H120.931C120.812 32.8125 120.528 32.2869 120.079 31.8665C119.636 31.4403 119.042 31.2273 118.298 31.2273C117.667 31.2273 117.113 31.3977 116.636 31.7386C116.158 32.0739 115.786 32.5568 115.519 33.1875C115.258 33.8182 115.127 34.5739 115.127 35.4545C115.127 36.3466 115.258 37.1136 115.519 37.7557C115.781 38.392 116.147 38.8835 116.619 39.2301C117.096 39.571 117.656 39.7415 118.298 39.7415C118.752 39.7415 119.158 39.6562 119.516 39.4858C119.88 39.3097 120.184 39.0568 120.428 38.7273C120.673 38.3977 120.84 37.9972 120.931 37.5256H123.88C123.806 38.4517 123.533 39.2727 123.062 39.9886C122.59 40.6989 121.948 41.2557 121.136 41.6591C120.323 42.0568 119.369 42.2557 118.272 42.2557ZM126.413 42V28.9091H129.499V42H126.413ZM127.964 27.0511C127.476 27.0511 127.055 26.8892 126.703 26.5653C126.351 26.2358 126.175 25.8409 126.175 25.3807C126.175 24.9148 126.351 24.5199 126.703 24.196C127.055 23.8665 127.476 23.7017 127.964 23.7017C128.459 23.7017 128.879 23.8665 129.226 24.196C129.578 24.5199 129.754 24.9148 129.754 25.3807C129.754 25.8409 129.578 26.2358 129.226 26.5653C128.879 26.8892 128.459 27.0511 127.964 27.0511ZM139.302 28.9091V31.2955H131.563V28.9091H139.302ZM133.498 42V27.6733C133.498 26.7926 133.68 26.0597 134.043 25.4744C134.413 24.8892 134.907 24.4517 135.526 24.1619C136.146 23.8722 136.833 23.7273 137.589 23.7273C138.123 23.7273 138.597 23.7699 139.012 23.8551C139.427 23.9403 139.734 24.017 139.933 24.0852L139.319 26.4716C139.188 26.4318 139.023 26.392 138.825 26.3523C138.626 26.3068 138.404 26.2841 138.16 26.2841C137.586 26.2841 137.18 26.4233 136.941 26.7017C136.708 26.9744 136.592 27.3665 136.592 27.8778V42H133.498ZM143.636 46.9091C143.215 46.9091 142.826 46.875 142.468 46.8068C142.116 46.7443 141.835 46.6705 141.624 46.5852L142.34 44.1818C142.789 44.3125 143.19 44.375 143.542 44.3693C143.894 44.3636 144.204 44.2528 144.471 44.0369C144.744 43.8267 144.974 43.4744 145.161 42.9801L145.425 42.2727L140.678 28.9091H143.951L146.968 38.7955H147.104L150.13 28.9091H153.411L148.17 43.5852C147.925 44.2784 147.602 44.8722 147.198 45.3665C146.795 45.8665 146.3 46.2472 145.715 46.5085C145.136 46.7756 144.442 46.9091 143.636 46.9091Z" fill="#F7F7F7"/>
</svg>
