<svg width="72" height="60" viewBox="0 0 72 60" fill="none" xmlns="http://www.w3.org/2000/svg">
<path d="M31.2564 11.817C31.1545 11.8493 30.9825 12.4291 30.9825 12.4291L30.6401 13.1771L30.1607 14.2652L29.8868 14.9453L30.0238 15.2173L30.4347 16.1694L31.3933 18.2096L32.0781 19.7057L35.5019 27.3224C35.5019 27.3224 35.9193 28.1513 36.1867 28.6825C36.2402 28.7887 36.3236 28.9545 36.3236 28.9545H36.4606L36.7345 28.8185L39.3366 27.4584L39.6105 27.3224L39.8844 27.1864L40.1583 27.0503V26.7783L39.8844 26.0983L39.4736 25.2822L38.241 22.5619L36.4606 18.6176L35.5019 16.5774L34.9541 15.3533L34.5433 14.4012L34.4063 14.1292L34.2693 13.8572L33.8585 13.3131C33.8585 13.3131 33.4924 12.9704 33.2422 12.7691C32.9595 12.5418 32.5959 12.2782 32.489 12.2251C32.382 12.1719 32.322 12.1422 32.215 12.089C32.1081 12.0359 32.0511 11.9998 31.9411 11.953C31.7857 11.8869 31.6981 11.8378 31.5303 11.817C31.4241 11.8038 31.3583 11.7848 31.2564 11.817Z" fill="#F7F7F7"/>
<path d="M52.758 29.3625H52.4841L52.0733 29.5468L48.2386 31.2667L46.8691 31.9468L46.7321 32.0828V32.2188L46.9375 32.6948L55.5656 51.2605L56.0449 52.3486C56.0449 52.3486 56.1819 52.8926 56.2504 53.0966C56.3873 53.5047 56.3382 54.6911 55.5656 55.0688C54.808 55.4391 53.9305 55.225 53.3059 54.6608C53.08 54.4567 52.6211 53.6407 52.6211 53.6407L48.9234 45.956L43.7191 34.667L43.5822 34.395L43.4452 34.123L43.3083 33.987H43.1713L42.8974 34.123L40.8431 35.3471L39.7475 36.0271L39.6105 36.1632V36.2992L39.7475 36.5712L40.0214 37.1152L41.254 39.8355L42.4866 42.5557C42.4866 42.5557 43.4059 44.5447 43.993 45.82C45.3365 48.7385 46.0455 50.395 47.4169 53.3006C47.8941 54.3118 48.2687 55.2808 48.6495 55.8849C49.1437 56.6689 49.7407 57.4423 50.1559 57.857C51.0397 58.7398 51.8717 59.3277 52.758 59.6252C53.7995 59.9747 55.1292 60.1123 56.5927 59.8972C58.1909 59.6623 59.7709 58.8204 60.4274 58.2651C61.2582 57.5624 62.27 56.4035 62.6872 54.8648C63.0423 53.5546 62.5361 51.6685 62.4817 51.3965C62.4273 51.1245 62.2486 50.6981 62.0709 50.1724C61.8338 49.471 61.6757 49.0858 61.3861 48.4042C61.0884 47.7036 60.881 47.3285 60.5644 46.6361C59.9604 45.3151 55.4971 35.4831 55.4971 35.4831L52.8189 29.4986C52.8189 29.4986 52.7653 29.3669 52.758 29.3625Z" fill="#F7F7F7"/>
<path d="M37.4193 4.47238L36.5976 4.60839L35.502 5.01643L34.8172 5.42446L33.7216 6.51256L33.4477 6.9206L33.1738 7.32863L33.0368 7.60065L32.8999 7.87268L32.7629 8.1447L32.626 8.55274V8.82476C32.626 8.82476 32.6953 8.72234 32.7629 8.68875C32.8999 8.62074 33.2208 8.62074 33.5162 8.62074C33.8115 8.62074 33.9824 8.61967 34.2694 8.68875C34.4338 8.72831 34.5198 8.77165 34.6803 8.82476C34.8407 8.87788 34.9357 8.89461 35.0911 8.96077C35.2011 9.00756 35.2607 9.03868 35.365 9.09679C35.5332 9.19048 35.6202 9.25576 35.7759 9.36881C36.3254 9.7679 36.7346 10.1849 37.0085 10.5929C37.2824 11.001 37.3274 11.0903 37.4878 11.409C37.5413 11.5152 37.9672 12.4971 37.9672 12.4971L39.7475 16.4414L43.1714 24.0581L43.5822 25.0102L43.7192 25.4182H43.8561L44.8148 25.0102L47.28 24.0581L49.0604 23.378L49.7451 23.106L49.8821 22.97V22.834L49.7451 22.562L49.6082 22.2899L48.3756 19.7057L47.0061 16.5774L45.0887 12.2251L43.9931 9.77684L43.4453 8.55274L43.0344 7.87268L42.7605 7.46464L42.4866 7.05661L41.8018 6.24054L41.1171 5.56048L40.1584 5.01643L39.0628 4.60839L38.1041 4.47238H37.4193Z" fill="#F7F7F7"/>
<path d="M31.3933 0.119995C31.1241 0.162865 30.9745 0.195923 30.7086 0.256007C30.4936 0.304591 30.3722 0.329724 30.1608 0.392019C29.9986 0.439796 29.6564 0.547752 29.339 0.664042C29.0688 0.76306 28.915 0.814422 28.6543 0.936066C28.546 0.986576 28.3804 1.07208 28.3804 1.07208C28.3804 1.07208 27.8526 1.36896 27.6956 1.48011C27.4167 1.67752 27.2339 1.74015 26.9424 1.95616C26.5908 2.21663 26.3804 2.41526 26.0522 2.70422C25.7692 2.95338 25.3854 3.33276 25.025 3.79232C24.8245 4.0481 24.7264 4.20238 24.5457 4.47237C24.2004 4.98826 24.0256 5.2903 23.724 5.83249C23.377 6.45626 22.9269 7.15641 22.4229 8.00868C19.9132 12.2527 18.6205 14.698 16.26 19.0256C13.3829 24.3006 11.3715 27.2665 8.65909 32.6268C7.21451 35.4816 6.60126 36.7654 5.30374 39.4274C3.65163 42.8169 2.46779 44.6099 1.12666 48.1322C0.725822 49.1849 0.347513 49.7411 0.167989 50.8524C0.00701614 51.8489 -0.0374321 52.3485 0.0310403 52.8246C0.0995128 53.3006 0.304942 54.1167 0.304942 54.1167C0.304942 54.1167 0.526175 54.7919 0.715802 55.2048C1.05458 55.9425 1.2943 56.3456 1.81143 56.9729C2.19472 57.438 2.43462 57.6855 2.90706 58.061C3.42272 58.4709 3.74017 58.6817 4.34507 58.9451C5.02819 59.2426 5.45488 59.321 6.19393 59.4212C7.04182 59.536 7.53979 59.5529 8.38519 59.4212C8.98763 59.3273 9.32408 59.2345 9.89167 59.0131C10.7625 58.6734 11.224 58.38 11.946 57.789C12.4129 57.4068 12.848 56.9316 13.3155 56.2929C13.9204 55.4664 14.1059 54.9032 14.5481 53.9807C15.022 52.992 15.2082 52.4024 15.6437 51.3965C16.0126 50.5443 16.2422 50.0762 16.6024 49.2203C16.9355 48.4285 17.1502 47.3841 17.4241 47.1801C17.698 46.9761 18.3421 46.7653 18.9306 46.5C20.0531 45.9941 20.7006 45.7486 21.8066 45.2079C23.622 44.3205 24.5965 43.7346 26.3261 42.6917C28.0759 41.6366 29.0024 40.9589 30.7086 39.8354C33.342 38.1015 35.091 36.8702 37.9671 35.075C40.6075 33.427 42.0768 32.4775 44.8148 30.9947C45.9279 30.3918 46.5499 30.048 47.6908 29.4986C48.7462 28.9903 49.364 28.7608 50.4299 28.2744C51.2343 27.9074 51.6776 27.685 52.4842 27.3224C52.964 27.1066 53.231 26.9806 53.7167 26.7783C54.4037 26.4922 54.8018 26.3638 55.4971 26.0983C56.1924 25.8327 56.5767 25.669 57.2775 25.4182C58.0731 25.1335 58.522 24.9799 59.3318 24.7381C59.7047 24.6268 59.9162 24.5728 60.2905 24.4661C61.5757 24.0997 62.2893 23.8705 63.5774 23.514C64.1648 23.3515 64.4915 23.2499 65.0839 23.106C65.5628 22.9896 66.3164 22.834 66.3164 22.834C66.3164 22.834 66.3126 22.8348 66.3101 22.8354C65.6111 22.9896 67.3958 22.5711 68.0968 22.4259C68.0968 22.4259 69.257 22.1312 70.0142 22.0179C70.4931 21.9462 71.0659 21.9024 71.2468 21.8819C71.3837 21.8663 72 21.8139 72 21.8139C72 21.8139 71.7919 21.7692 71.6576 21.7459C71.2342 21.6724 70.5743 21.6301 69.8772 21.6099C69.4495 21.5975 69.3366 21.6099 68.7816 21.6099C67.6047 21.6099 66.944 21.6698 65.7686 21.7459C65.0728 21.7909 64.6825 21.8167 63.9882 21.8819C63.0768 21.9674 62.5671 22.0309 61.66 22.1539C60.6407 22.2921 60.0702 22.3797 59.0579 22.562C58.2529 22.7069 57.8014 22.7897 57.0036 22.97C56.3585 23.1157 56.0008 23.2143 55.3602 23.378C54.5561 23.5835 54.1046 23.697 53.3059 23.9221C51.4672 24.4401 50.4488 24.7782 48.6495 25.4182C47.7891 25.7242 47.3081 25.9004 46.4582 26.2343C44.61 26.9603 43.6032 27.4405 41.8018 28.2744C39.4171 29.3785 38.0635 29.976 35.7759 31.2667C33.8534 32.3514 32.3272 33.3815 30.1608 34.803C29.6781 35.1197 29.4107 35.3021 28.9282 35.6191C27.8641 36.3181 27.2588 36.6967 26.1891 37.3872C25.1194 38.0777 24.5364 38.4911 23.45 39.1554C22.5518 39.7047 21.9436 40.1075 21.1218 40.5155C20.3001 40.9235 19.7985 41.2038 18.9306 41.6036C18.4528 41.8237 18.1889 41.958 17.698 42.1477C16.8148 42.4889 15.9176 42.8277 15.3698 42.9637C14.822 43.0997 13.5261 43.4038 12.3568 43.2357C12.0869 43.1969 11.9346 43.1731 11.6721 43.0997C11.5093 43.0543 11.4217 43.0168 11.2612 42.9637C11.1008 42.9106 11.0074 42.8901 10.8503 42.8277C10.6283 42.7395 10.5086 42.6763 10.3025 42.5557C10.1364 42.4585 10.0447 42.4003 9.89167 42.2837C9.59165 42.055 9.43715 41.9016 9.20691 41.6036C9.0895 41.4517 9.02735 41.3626 8.933 41.1956C8.87449 41.092 8.84316 41.0327 8.79605 40.9235C8.72942 40.7692 8.65909 40.5155 8.65909 40.5155C8.65909 40.5155 8.55767 40.1876 8.52214 39.9715C8.4532 39.5521 8.47065 39.3052 8.52214 38.8834C8.55496 38.6145 8.59859 38.4674 8.65909 38.2033C8.70801 37.9898 8.79605 37.6593 8.79605 37.6593C8.79605 37.6593 8.86452 37.3872 8.933 37.2512C9.00148 37.1152 9.06995 37.1152 9.06995 37.1152C9.06995 37.1152 9.13843 37.1832 9.13843 37.3872C9.13843 37.5913 9.12811 38.0853 9.20691 38.6113C9.24704 38.8792 9.26008 39.0337 9.34386 39.2914C9.45408 39.6305 9.5505 39.8145 9.75472 40.1075C10.013 40.478 10.2033 40.667 10.5764 40.9235C10.8714 41.1264 11.0596 41.2136 11.3982 41.3316C11.8338 41.4833 12.1014 41.6454 12.5623 41.6716C13.0169 41.6974 13.3632 41.6287 13.8633 41.5356C14.4786 41.4211 14.8278 41.2347 15.3698 40.9235C15.8797 40.6309 16.0842 40.3903 16.4654 39.9715C16.799 39.605 16.9635 39.3576 17.2187 38.9514C18.1745 37.4294 18.4825 36.4473 19.2045 34.803C19.7127 33.6457 19.9414 32.9734 20.4371 31.8108C21.0066 30.4748 21.3653 29.7427 21.9436 28.4105C22.1048 28.039 22.1908 27.8288 22.3544 27.4584C22.614 26.8706 23.0392 25.9622 23.0392 25.9622L23.45 25.0102L23.9979 23.7861L24.2718 23.106C24.2718 23.106 24.52 22.5248 24.6826 22.1539C24.8929 21.6743 25.0165 21.4078 25.2304 20.9298C25.4444 20.4518 25.5692 20.1859 25.7783 19.7057C26.0542 19.0719 26.1851 18.7065 26.463 18.0736C26.7214 17.4853 26.886 17.1642 27.1478 16.5774C27.4777 15.8377 27.6426 15.4143 27.9695 14.6733C28.1809 14.1941 28.3016 13.9264 28.5173 13.4492C28.782 12.8637 28.9378 12.5387 29.2021 11.953C29.7506 10.7373 30.0194 10.0388 30.5716 8.82475C30.8869 8.13169 31.0316 7.72692 31.3933 7.0566C31.6879 6.51062 31.8371 6.1892 32.2151 5.69648C32.6735 5.09897 32.9886 4.79888 33.5846 4.33636C33.8418 4.13675 34.1012 3.95402 34.2694 3.86032C34.3737 3.80221 34.5733 3.70942 34.6802 3.6563C34.7872 3.60319 34.8472 3.57341 34.9541 3.52029C35.0611 3.46718 35.1173 3.42909 35.228 3.38428C35.4323 3.30165 35.5619 3.23338 35.7759 3.18026C35.9898 3.12715 36.1756 3.0855 36.3921 3.04425C37.1275 2.90419 37.5562 2.90824 37.8302 2.90824C38.1041 2.90824 38.4679 3.00602 38.7888 3.11226C38.9493 3.16537 39.3866 3.31811 39.5421 3.38428C39.652 3.43107 40.2568 3.8072 40.3638 3.86032C40.2568 3.8072 40.4708 3.91344 40.3638 3.86032C40.2539 3.81353 40.4708 3.91344 40.3638 3.86032C40.3638 3.86032 40.9733 4.20866 41.117 4.33636C41.1734 4.38645 41.254 4.47237 41.254 4.47237C41.254 4.47237 41.1764 4.30347 41.117 4.20035C40.9844 3.96976 40.7062 3.6563 40.7062 3.6563C40.7062 3.6563 39.9245 2.76882 39.3366 2.29618C39.1288 2.12908 38.7888 1.88815 38.7888 1.88815C38.7888 1.88815 37.9789 1.34556 37.4193 1.07208C36.9024 0.819504 36.2102 0.581146 36.0498 0.52803C35.8893 0.474914 35.801 0.439796 35.6389 0.392019C35.4275 0.329724 35.3066 0.302245 35.0911 0.256007C34.7731 0.187792 34.592 0.161279 34.2694 0.119995C33.1554 -0.0225334 32.5023 -0.0565611 31.3933 0.119995Z" fill="#F7F7F7"/>
</svg>
